<svg width="48" height="48" viewBox="0 0 48 48" fill="none" xmlns="http://www.w3.org/2000/svg">
<g filter="url(#filter0_d_3133_4865)">
<circle cx="24" cy="24" r="20" fill="white"/>
</g>
<path d="M24 36C22.36 36 20.81 35.6848 19.35 35.0544C17.89 34.424 16.6148 33.564 15.5244 32.4744C14.4348 31.3848 13.5748 30.11 12.9444 28.65C12.314 27.19 11.9992 25.64 12 24C12 22.34 12.3152 20.7848 12.9456 19.3344C13.576 17.884 14.436 16.6144 15.5256 15.5256C16.6152 14.4352 17.8896 13.5752 19.3488 12.9456C20.808 12.316 22.3584 12.0008 24 12C25.66 12 27.2152 12.3152 28.6656 12.9456C30.116 13.576 31.3856 14.436 32.4744 15.5256C33.5648 16.6152 34.4248 17.8852 35.0544 19.3356C35.684 20.786 35.9992 22.3408 36 24C36 25.64 35.6848 27.19 35.0544 28.65C34.424 30.11 33.564 31.3852 32.4744 32.4756C31.3848 33.5652 30.1148 34.4252 28.6644 35.0556C27.214 35.686 25.6592 36.0008 24 36ZM24 33.54C24.52 32.82 24.97 32.07 25.35 31.29C25.73 30.51 26.04 29.68 26.28 28.8H21.72C21.96 29.68 22.27 30.51 22.65 31.29C23.03 32.07 23.48 32.82 24 33.54ZM20.88 33.06C20.52 32.4 20.2048 31.7148 19.9344 31.0044C19.664 30.294 19.4392 29.5592 19.26 28.8H15.72C16.3 29.8 17.0252 30.67 17.8956 31.41C18.766 32.15 19.7608 32.7 20.88 33.06ZM27.12 33.06C28.24 32.7 29.2352 32.15 30.1056 31.41C30.976 30.67 31.7008 29.8 32.28 28.8H28.74C28.56 29.56 28.3352 30.2952 28.0656 31.0056C27.796 31.716 27.4808 32.4008 27.12 33.06ZM14.7 26.4H18.78C18.72 26 18.6748 25.6048 18.6444 25.2144C18.614 24.824 18.5992 24.4192 18.6 24C18.6 23.58 18.6152 23.1752 18.6456 22.7856C18.676 22.396 18.7208 22.0008 18.78 21.6H14.7C14.6 22 14.5248 22.3952 14.4744 22.7856C14.424 23.176 14.3992 23.5808 14.4 24C14.4 24.42 14.4252 24.8248 14.4756 25.2144C14.526 25.604 14.6008 25.9992 14.7 26.4ZM21.18 26.4H26.82C26.88 26 26.9252 25.6048 26.9556 25.2144C26.986 24.824 27.0008 24.4192 27 24C27 23.58 26.9848 23.1752 26.9544 22.7856C26.924 22.396 26.8792 22.0008 26.82 21.6H21.18C21.12 22 21.0748 22.3952 21.0444 22.7856C21.014 23.176 20.9992 23.5808 21 24C21 24.42 21.0152 24.8248 21.0456 25.2144C21.076 25.604 21.1208 25.9992 21.18 26.4ZM29.22 26.4H33.3C33.4 26 33.4752 25.6048 33.5256 25.2144C33.576 24.824 33.6008 24.4192 33.6 24C33.6 23.58 33.5748 23.1752 33.5244 22.7856C33.474 22.396 33.3992 22.0008 33.3 21.6H29.22C29.28 22 29.3252 22.3952 29.3556 22.7856C29.386 23.176 29.4008 23.5808 29.4 24C29.4 24.42 29.3848 24.8248 29.3544 25.2144C29.324 25.604 29.2792 25.9992 29.22 26.4ZM28.74 19.2H32.28C31.7 18.2 30.9752 17.33 30.1056 16.59C29.236 15.85 28.2408 15.3 27.12 14.94C27.48 15.6 27.7952 16.2852 28.0656 16.9956C28.336 17.706 28.5608 18.4408 28.74 19.2ZM21.72 19.2H26.28C26.04 18.32 25.73 17.49 25.35 16.71C24.97 15.93 24.52 15.18 24 14.46C23.48 15.18 23.03 15.93 22.65 16.71C22.27 17.49 21.96 18.32 21.72 19.2ZM15.72 19.2H19.26C19.44 18.44 19.6652 17.7048 19.9356 16.9944C20.206 16.284 20.5208 15.5992 20.88 14.94C19.76 15.3 18.7648 15.85 17.8944 16.59C17.024 17.33 16.2992 18.2 15.72 19.2Z" fill="black"/>
<defs>
<filter id="filter0_d_3133_4865" x="0" y="0" width="48" height="48" filterUnits="userSpaceOnUse" color-interpolation-filters="sRGB">
<feFlood flood-opacity="0" result="BackgroundImageFix"/>
<feColorMatrix in="SourceAlpha" type="matrix" values="0 0 0 0 0 0 0 0 0 0 0 0 0 0 0 0 0 0 127 0" result="hardAlpha"/>
<feOffset/>
<feGaussianBlur stdDeviation="2"/>
<feComposite in2="hardAlpha" operator="out"/>
<feColorMatrix type="matrix" values="0 0 0 0 0 0 0 0 0 0 0 0 0 0 0 0 0 0 0.25 0"/>
<feBlend mode="normal" in2="BackgroundImageFix" result="effect1_dropShadow_3133_4865"/>
<feBlend mode="normal" in="SourceGraphic" in2="effect1_dropShadow_3133_4865" result="shape"/>
</filter>
</defs>
</svg>
