<svg width="48" height="48" viewBox="0 0 48 48" fill="none" xmlns="http://www.w3.org/2000/svg">
<g filter="url(#filter0_d_3107_4971)">
<circle cx="24" cy="24" r="20" fill="white"/>
</g>
<path d="M14.0459 33.2865V18.4979L12.1172 13.9528C11.9721 13.6136 11.9617 13.2685 12.0861 12.9176C12.2106 12.5666 12.4283 12.3124 12.7394 12.1551C13.0504 11.9977 13.3669 11.9809 13.6888 12.1049C14.0106 12.2288 14.2437 12.4603 14.388 12.7995L16.7833 18.43H31.2167L33.612 12.7995C33.7571 12.4603 33.9906 12.2229 34.3125 12.0872C34.6343 11.9515 34.9504 11.9742 35.2606 12.1551C35.5717 12.3133 35.7894 12.568 35.9139 12.9189C36.0383 13.2699 36.0279 13.6145 35.8828 13.9528L33.9541 18.4979V33.2865C33.9541 34.0327 33.7107 34.6717 33.2238 35.2036C32.7368 35.7354 32.1508 36.0009 31.4656 36H16.5344C15.8501 36 15.2644 35.7345 14.7775 35.2036C14.2906 34.6726 14.0467 34.0336 14.0459 33.2865ZM21.5115 26.5027H26.4885C26.8411 26.5027 27.1368 26.3725 27.3757 26.112C27.6146 25.8515 27.7336 25.5295 27.7328 25.146C27.732 24.7625 27.6125 24.4405 27.3745 24.18C27.1364 23.9195 26.8411 23.7892 26.4885 23.7892H21.5115C21.1589 23.7892 20.8636 23.9195 20.6255 24.18C20.3875 24.4405 20.268 24.7625 20.2672 25.146C20.2664 25.5295 20.3858 25.8519 20.6255 26.1133C20.8653 26.3747 21.1606 26.5045 21.5115 26.5027Z" fill="black"/>
<defs>
<filter id="filter0_d_3107_4971" x="0" y="0" width="48" height="48" filterUnits="userSpaceOnUse" color-interpolation-filters="sRGB">
<feFlood flood-opacity="0" result="BackgroundImageFix"/>
<feColorMatrix in="SourceAlpha" type="matrix" values="0 0 0 0 0 0 0 0 0 0 0 0 0 0 0 0 0 0 127 0" result="hardAlpha"/>
<feOffset/>
<feGaussianBlur stdDeviation="2"/>
<feComposite in2="hardAlpha" operator="out"/>
<feColorMatrix type="matrix" values="0 0 0 0 0 0 0 0 0 0 0 0 0 0 0 0 0 0 0.25 0"/>
<feBlend mode="normal" in2="BackgroundImageFix" result="effect1_dropShadow_3107_4971"/>
<feBlend mode="normal" in="SourceGraphic" in2="effect1_dropShadow_3107_4971" result="shape"/>
</filter>
</defs>
</svg>
