<svg width="48" height="48" viewBox="0 0 48 48" fill="none" xmlns="http://www.w3.org/2000/svg">
<g filter="url(#filter0_d_3133_4868)">
<circle cx="24" cy="24" r="20" fill="white"/>
</g>
<path d="M18.5089 12.6112C16.3905 13.9375 14.9586 16.2787 14.9586 18.9543C14.9586 21.63 16.3905 23.9712 18.5444 25.2975C14.9112 25.2975 12 22.4604 12 18.9543C12 17.2721 12.6858 15.6587 13.9064 14.4691C15.1271 13.2795 16.7826 12.6112 18.5089 12.6112ZM32.2012 14.3412L33.8935 15.9904L15.4675 33.9471L13.7751 32.2979L32.2012 14.3412ZM24.8876 17.1437L23.1361 16.0711L21.432 17.2244L21.929 15.2638L20.284 14.0413L22.355 13.9029L23.0414 12L23.8343 13.8799L25.8817 13.9145L24.284 15.2177L24.8876 17.1437ZM20.9822 21.3071L19.6095 20.4652L18.284 21.3647L18.6864 19.8424L17.3964 18.8852L19.0059 18.7814L19.5385 17.2936L20.142 18.7583L21.7515 18.7929L20.5089 19.7963L20.9822 21.3071ZM32.1183 25.8741C32.1183 27.5564 31.4326 29.1698 30.2119 30.3593C28.9913 31.5489 27.3357 32.2172 25.6095 32.2172C24.1657 32.2172 22.8284 31.7559 21.7515 30.9832L30.8521 22.1144C31.645 23.1639 32.1183 24.4671 32.1183 25.8741ZM26.9112 33.4628L30.1893 32.1365L29.9053 36L26.9112 33.4628ZM32.0355 30.3489L33.3964 27.1543L36 30.0836L32.0355 30.3489ZM33.3964 24.6285L32.0473 21.4224L36 21.6992L33.3964 24.6285ZM21.0296 32.1365L24.3077 33.4628L21.3136 35.9885L21.0296 32.1365Z" fill="black"/>
<defs>
<filter id="filter0_d_3133_4868" x="0" y="0" width="48" height="48" filterUnits="userSpaceOnUse" color-interpolation-filters="sRGB">
<feFlood flood-opacity="0" result="BackgroundImageFix"/>
<feColorMatrix in="SourceAlpha" type="matrix" values="0 0 0 0 0 0 0 0 0 0 0 0 0 0 0 0 0 0 127 0" result="hardAlpha"/>
<feOffset/>
<feGaussianBlur stdDeviation="2"/>
<feComposite in2="hardAlpha" operator="out"/>
<feColorMatrix type="matrix" values="0 0 0 0 0 0 0 0 0 0 0 0 0 0 0 0 0 0 0.25 0"/>
<feBlend mode="normal" in2="BackgroundImageFix" result="effect1_dropShadow_3133_4868"/>
<feBlend mode="normal" in="SourceGraphic" in2="effect1_dropShadow_3133_4868" result="shape"/>
</filter>
</defs>
</svg>
